<svg width="100" height="97" viewBox="0 0 100 97" fill="none" xmlns="http://www.w3.org/2000/svg">
<path d="M39.8867 61.2188C39.8867 62.3906 39.6328 63.4062 39.125 64.2656C38.6172 65.1055 37.9629 65.7988 37.1621 66.3457C36.3613 66.9121 35.4434 67.332 34.4082 67.6055C33.3926 67.8594 32.3574 67.9863 31.3027 67.9863C29.9746 67.9863 28.7441 67.8105 27.6113 67.459C26.498 67.0879 25.5117 66.541 24.6523 65.8184C23.793 65.1152 23.0898 64.2559 22.543 63.2402C21.9961 62.2051 21.6348 61.0234 21.459 59.6953H15.9219C15.9805 61.5312 16.3809 63.2012 17.123 64.7051C17.8848 66.1895 18.9102 67.4883 20.1992 68.6016C21.6445 69.8906 23.3438 70.877 25.2969 71.5605C27.2695 72.2441 29.2715 72.5859 31.3027 72.5859C33.002 72.5859 34.7012 72.3516 36.4004 71.8828C38.0996 71.3945 39.623 70.6719 40.9707 69.7148C42.3184 68.7773 43.4121 67.5957 44.252 66.1699C45.1113 64.7441 45.541 63.0742 45.541 61.1602C45.541 59.2656 45.1406 57.5957 44.3398 56.1504C43.5586 54.7051 42.5234 53.4844 41.2344 52.4883C39.9258 51.4141 38.4805 50.5352 36.8984 49.8516C35.3164 49.1484 33.7344 48.5527 32.1523 48.0645C31.1953 47.7715 30.1699 47.4297 29.0762 47.0391C28.002 46.6484 27.0059 46.1602 26.0879 45.5742C25.1504 44.9883 24.3789 44.2754 23.7734 43.4355C23.168 42.5762 22.8555 41.5312 22.8359 40.3008C22.8359 39.168 23.0605 38.1719 23.5098 37.3125C23.9785 36.4531 24.6035 35.7305 25.3848 35.1445C26.1465 34.5586 27.0156 34.1191 27.9922 33.8262C28.9883 33.5332 30.0039 33.3867 31.0391 33.3867C32.3281 33.3867 33.4805 33.5918 34.4961 34.002C35.5312 34.3926 36.4199 34.9492 37.1621 35.6719C37.9043 36.3945 38.5 37.2637 38.9492 38.2793C39.3984 39.2754 39.7012 40.3887 39.8574 41.6191H45.4238C45.3848 39.666 44.9648 37.8984 44.1641 36.3164C43.3633 34.7344 42.2988 33.3867 40.9707 32.2734C39.6426 31.1602 38.1191 30.3008 36.4004 29.6953C34.6816 29.0703 32.8945 28.7578 31.0391 28.7578C29.3594 28.7578 27.6895 29.0215 26.0293 29.5488C24.3691 30.0566 22.8848 30.8086 21.5762 31.8047C20.2676 32.8008 19.2031 34.0215 18.3828 35.4668C17.582 36.9121 17.1816 38.5527 17.1816 40.3887C17.1816 42.2246 17.582 43.8262 18.3828 45.1934C19.2031 46.541 20.2578 47.7129 21.5469 48.709C22.8164 49.6855 24.2227 50.5254 25.7656 51.2285C27.3281 51.9121 28.8613 52.498 30.3652 52.9863C31.4004 53.3184 32.4746 53.6895 33.5879 54.0996C34.7207 54.5098 35.7559 55.0176 36.6934 55.623C37.6309 56.248 38.3926 57.0098 38.9785 57.9082C39.584 58.8066 39.8867 59.9102 39.8867 61.2188ZM55.8242 72H61.3906L66.6055 41.6777L66.9277 39.8613L67.2207 41.6484L72.4062 72H77.9434L83.1289 29.3438H78.002L74.9258 58.6992L74.75 60.457L74.4277 58.7285L69.2422 29.3438H64.5254L59.3691 58.6992L59.0469 60.457L58.8711 58.7578L55.7949 29.3438H50.6387L55.8242 72Z" fill="#E7E7E7"/>
<path d="M74.8276 2H31.7931L2 29.6094V65.9375L31.7931 95H74.8276L98 65.9375" stroke="#E7E7E7" stroke-width="4"/>
</svg>
